<?xml version="1.0" encoding="UTF-8" standalone="no"?>
<svg
   viewBox="0 0 1024 948"
   width="1024"
   height="948"
   version="1.1"
   id="svg6"
   sodipodi:docname="logo.svg"
   inkscape:version="1.4.4 (dcaf3e7d9e, 2026-05-05)"
   xmlns:inkscape="http://www.inkscape.org/namespaces/inkscape"
   xmlns:sodipodi="http://sodipodi.sourceforge.net/DTD/sodipodi-0.dtd"
   xmlns:xlink="http://www.w3.org/1999/xlink"
   xmlns="http://www.w3.org/2000/svg"
   xmlns:svg="http://www.w3.org/2000/svg">
  <sodipodi:namedview
     id="namedview6"
     pagecolor="#ffffff"
     bordercolor="#000000"
     borderopacity="0.25"
     inkscape:showpageshadow="2"
     inkscape:pageopacity="0.0"
     inkscape:pagecheckerboard="true"
     inkscape:deskcolor="#d1d1d1"
     inkscape:zoom="0.78710937"
     inkscape:cx="933.16129"
     inkscape:cy="575.52357"
     inkscape:window-width="1906"
     inkscape:window-height="1020"
     inkscape:window-x="5"
     inkscape:window-y="51"
     inkscape:window-maximized="1"
     inkscape:current-layer="svg6" />
  <defs
     id="defs4">
    <linearGradient
       id="kiroBlue"
       gradientUnits="userSpaceOnUse"
       x1="1024"
       y1="0"
       x2="120"
       y2="948">
      <stop
         offset="0"
         stop-color="#15a0fb"
         id="stop1" />
      <stop
         offset="1"
         stop-color="#0046b8"
         id="stop2" />
    </linearGradient>
    <linearGradient
       id="kiroGreen"
       gradientUnits="userSpaceOnUse"
       x1="600"
       y1="420"
       x2="940"
       y2="880">
      <stop
         offset="0"
         stop-color="#31c429"
         id="stop3" />
      <stop
         offset="1"
         stop-color="#08b53b"
         id="stop4" />
    </linearGradient>
    <linearGradient
       inkscape:collect="always"
       xlink:href="#kiroBlue"
       id="linearGradient6"
       gradientUnits="userSpaceOnUse"
       x1="1024"
       y1="0"
       x2="120"
       y2="948" />
    <linearGradient
       inkscape:collect="always"
       xlink:href="#kiroBlue"
       id="linearGradient7"
       gradientUnits="userSpaceOnUse"
       x1="1024"
       y1="0"
       x2="120"
       y2="948" />
  </defs>
  <path
     fill="url(#kiroBlue)"
     d="M 21.5,1.4 C -1.9120707,39.534846 15.687266,94.793941 10.188485,140.18034 10.152772,349.01826 9.3351057,557.87347 11.3,766.7 116.8874,534.74817 252.422,318.50201 388,103.7 410.02703,69.116314 432.1583,34.658495 454,0 309.83851,0.47652898 165.6194,-1.217632 21.5,1.4 Z"
     id="path4"
     style="fill:url(#linearGradient7)" />
  <path
     fill="url(#kiroBlue)"
     d="M 621.2,5.9 C 434.90451,234.24354 231.53442,453.38059 96.6625,717.975 58.429194,792.03995 26.665401,869.47112 -0.1,948.3 125.43957,867.02959 270.39296,817.26935 417.9,794.8 362.0031,721.8108 302.9707,645.27959 280.8,554.5 433.45815,435.01999 599.60616,333.82259 747.4,208 827.37944,142.05862 902.74667,70.713236 978.5,0 861.13333,0 743.76667,0 626.4,0 c -1.73333,1.9666667 -3.46667,3.9333333 -5.2,5.9 z"
     id="path5"
     style="fill:url(#linearGradient6)" />
  <path
     fill="url(#kiroGreen)"
     d="M 672.5,369.2 C 585.2792,428.88087 495.77244,487.33685 408.425,547.1875 455.75743,660.67857 537.70657,764.71337 651.84199,816.47266 766.32645,873.48969 898.2399,875.77879 1023.5,871.9 905.5602,704.97642 786.85179,538.5065 673.5875,368.4125 Z"
     id="path6"
     style="fill:url(#kiroGreen)" />
</svg>
